<?xml version="1.0" standalone="no"?>
<!DOCTYPE svg PUBLIC "-//W3C//DTD SVG 20010904//EN"
 "http://www.w3.org/TR/2001/REC-SVG-20010904/DTD/svg10.dtd">
<svg version="1.0" xmlns="http://www.w3.org/2000/svg"
 width="640.000000pt" height="640.000000pt" viewBox="0 0 640.000000 640.000000"
 preserveAspectRatio="xMidYMid meet">
<metadata>
Created by potrace 1.14, written by Peter Selinger 2001-2017
</metadata>
<g transform="translate(0.000000,640.000000) scale(0.100000,-0.100000)"
fill="#000000" stroke="none">
<path d="M235 6390 c-6 -10 54 -30 68 -23 4 2 7 11 7 19 0 16 -65 20 -75 4z"/>
<path d="M2818 6394 c-3 -3 0 -25 8 -50 7 -24 16 -68 19 -97 7 -65 15 -99 26
-113 5 -6 13 -55 20 -110 6 -54 15 -109 21 -121 6 -11 8 -25 5 -30 -7 -10 21
-105 41 -140 7 -12 28 -30 47 -39 43 -20 81 -9 144 41 24 19 47 35 52 35 9 0
247 193 307 248 60 57 314 221 342 222 9 0 25 7 36 14 41 29 235 95 341 116
59 12 110 24 112 26 2 2 -338 4 -756 4 -418 0 -762 -2 -765 -6z"/>
<path d="M6330 6375 c-19 -13 -42 -24 -51 -24 -20 -1 -89 -65 -89 -83 0 -14
-13 -22 -100 -62 -84 -39 -101 -57 -149 -168 -12 -26 -21 -54 -21 -62 0 -9 -4
-16 -8 -16 -4 0 -9 -35 -10 -77 -1 -43 -5 -103 -8 -133 -6 -66 -54 -263 -66
-270 -4 -3 -9 -15 -11 -27 -1 -12 -8 -27 -14 -35 -16 -19 -43 -88 -43 -108 0
-10 -22 -41 -50 -68 -27 -27 -50 -54 -50 -59 0 -14 -54 -63 -70 -63 -7 0 -28
-11 -45 -25 -18 -13 -59 -36 -91 -50 -144 -64 -141 -62 -164 -109 -20 -41 -21
-57 -17 -168 6 -176 38 -340 86 -451 12 -27 21 -58 21 -68 0 -37 120 -288 167
-348 33 -43 154 -160 197 -191 99 -71 131 -90 143 -85 7 2 13 0 13 -5 0 -6 3
-9 8 -8 4 1 42 -15 85 -35 44 -20 109 -42 145 -48 37 -6 74 -15 82 -19 8 -4
52 -11 98 -15 l82 -7 0 1456 c0 1380 -1 1456 -17 1455 -10 0 -34 -11 -53 -24z"/>
<path d="M3170 4666 c0 -7 -6 -19 -14 -25 -11 -9 -15 -7 -20 11 -6 23 -7 23
-22 -6 -11 -20 -18 -25 -24 -16 -5 7 -16 9 -30 5 -15 -5 -26 -2 -31 6 -8 12
-10 12 -18 0 -13 -20 -55 -21 -62 -2 -5 13 -9 10 -18 -11 -7 -19 -15 -26 -26
-22 -10 4 -15 0 -16 -12 0 -11 -3 -14 -6 -6 -8 21 -33 13 -34 -10 -1 -17 -2
-19 -6 -5 -6 21 -53 24 -53 2 0 -18 -26 -20 -36 -3 -5 7 -10 3 -16 -12 -7 -18
-11 -21 -20 -12 -18 18 -27 15 -21 -6 4 -16 -1 -19 -26 -17 -21 1 -31 -3 -31
-13 0 -12 -3 -12 -15 -2 -13 10 -15 9 -15 -9 0 -19 -10 -26 -32 -22 -5 0 -8
-5 -8 -13 0 -9 -9 -13 -25 -11 -15 1 -31 -5 -38 -15 -19 -26 -54 -43 -60 -27
-3 6 -6 0 -6 -15 -1 -31 -17 -38 -24 -10 -4 13 -5 13 -6 -4 0 -12 -7 -33 -14
-47 -12 -22 -15 -24 -36 -12 -33 17 -69 -1 -63 -32 3 -16 0 -23 -11 -23 -20 0
-27 -20 -15 -42 5 -12 5 -18 -2 -18 -5 0 -10 7 -10 15 0 8 -7 15 -15 15 -9 0
-12 -6 -9 -15 7 -18 -7 -20 -24 -3 -9 9 -12 9 -12 -1 0 -7 -5 -9 -11 -6 -6 4
-10 1 -8 -6 3 -29 -2 -40 -18 -37 -10 2 -18 -3 -18 -12 0 -10 -9 -14 -25 -13
-14 1 -19 -1 -12 -3 17 -8 15 -24 -3 -24 -8 0 -15 -4 -15 -10 0 -5 -7 -10 -15
-10 -9 0 -12 -6 -9 -15 4 -8 1 -15 -7 -15 -7 0 -10 -3 -6 -6 3 -4 -1 -13 -9
-21 -8 -8 -11 -19 -8 -25 5 -7 0 -9 -14 -6 -12 4 -20 2 -16 -3 3 -5 1 -9 -3
-9 -5 0 -15 -16 -22 -36 -11 -30 -11 -38 0 -45 11 -7 11 -9 -1 -9 -9 0 -22 6
-29 13 -10 10 -12 8 -9 -8 2 -15 -3 -21 -20 -23 -19 -3 -21 -6 -11 -18 16 -20
2 -31 -21 -16 -26 16 -38 16 -17 0 9 -7 19 -26 23 -42 6 -26 5 -27 -14 -17
-32 17 -39 12 -13 -9 19 -17 20 -20 6 -20 -14 0 -15 -3 -5 -15 15 -18 0 -20
-19 -2 -11 10 -13 9 -8 -5 4 -10 2 -18 -5 -18 -7 0 -6 -5 2 -15 10 -13 9 -15
-11 -15 l-24 0 25 -20 c23 -18 24 -20 5 -21 -11 -1 -28 -2 -37 -1 -20 2 -24
-13 -7 -24 7 -4 -2 -13 -20 -21 -35 -17 -39 -37 -14 -65 19 -21 14 -29 -21
-32 -26 -1 -34 -10 -17 -20 5 -3 7 -14 5 -24 -3 -9 4 -27 16 -40 15 -16 17
-22 6 -22 -8 0 -17 6 -20 13 -5 9 -7 9 -12 0 -3 -7 -12 -9 -19 -6 -8 3 -22 -2
-30 -11 -15 -14 -14 -17 9 -28 14 -6 26 -16 26 -21 0 -5 5 -5 13 1 7 6 18 7
27 2 8 -5 22 -3 35 6 12 8 31 12 41 8 18 -5 18 -5 2 9 -24 19 -23 27 3 27 16
0 19 4 14 23 -4 15 -3 18 3 8 12 -17 24 1 16 24 -6 14 -3 16 17 11 22 -6 23
-6 7 7 -22 18 -23 27 -2 27 9 0 14 7 12 18 -1 9 1 22 5 29 4 7 1 23 -8 36 -14
22 -13 25 6 46 17 18 18 25 9 36 -9 11 -9 15 -1 15 6 0 11 11 11 25 0 16 6 25
15 25 8 0 15 5 15 10 0 6 6 10 14 10 8 0 16 7 20 15 4 11 -1 15 -17 15 -16 0
-18 3 -8 9 7 5 22 6 32 4 14 -4 19 0 20 16 2 32 3 34 20 59 11 14 22 20 33 16
11 -4 16 -1 16 11 0 11 5 15 16 11 11 -4 14 -1 9 13 -3 12 0 21 10 25 9 3 15
11 14 18 -4 37 2 43 21 19 l20 -23 -6 31 c-4 21 -3 31 5 31 7 0 9 5 5 12 -4 6
8 2 28 -10 29 -18 37 -20 47 -9 8 10 7 17 -1 25 -9 9 -7 12 10 12 12 0 22 4
22 10 0 5 13 7 29 4 21 -5 32 -1 43 14 12 17 19 19 58 12 26 -5 46 -5 48 1 2
5 17 2 34 -7 19 -10 44 -14 63 -11 24 4 42 -1 68 -19 20 -13 41 -24 46 -24 6
0 8 -6 5 -14 -3 -9 1 -13 13 -13 12 1 18 -5 19 -18 0 -25 20 -63 47 -92 11
-13 17 -23 14 -23 -4 0 -1 -11 8 -23 8 -13 14 -35 12 -48 -2 -14 6 -40 19 -61
13 -21 24 -40 24 -43 0 -16 61 -134 71 -137 9 -3 9 -9 0 -23 -6 -11 -27 -55
-46 -99 -32 -72 -35 -86 -35 -175 0 -93 -1 -99 -31 -139 -17 -23 -27 -46 -24
-52 4 -6 1 -18 -6 -26 -21 -26 -22 -54 -1 -48 15 5 15 5 -1 -6 -16 -10 -15
-14 18 -47 32 -32 40 -35 76 -30 37 5 39 4 22 -10 -17 -14 -17 -14 5 -10 12 3
22 1 22 -4 0 -5 8 -9 18 -9 10 0 38 -9 61 -21 24 -11 52 -18 62 -16 11 3 19 1
19 -4 0 -5 -5 -9 -11 -9 -5 0 3 -12 18 -26 25 -23 34 -25 82 -22 33 3 58 11
65 20 8 11 21 14 39 11 16 -3 37 1 52 11 20 14 25 14 32 2 4 -8 17 -14 27 -13
12 1 25 -7 31 -20 11 -22 11 -22 29 8 21 35 39 38 30 5 -5 -21 -3 -24 25 -22
17 1 36 7 42 13 9 9 18 9 32 2 22 -12 73 -5 114 16 15 8 42 15 59 15 40 0 86
19 152 64 62 42 76 53 147 125 22 23 43 41 47 41 4 0 5 7 2 15 -4 9 0 15 7 15
11 0 11 2 0 9 -8 5 -16 17 -17 27 -4 24 -22 59 -58 114 -17 25 -29 46 -28 48
1 1 2 3 1 5 0 1 -2 11 -4 22 -2 11 -13 40 -24 65 -11 25 -22 56 -25 70 -3 14
-13 34 -23 45 -10 11 -24 32 -31 46 -8 14 -25 39 -38 54 -29 33 -29 35 -5 105
16 49 16 58 4 89 -8 19 -17 71 -19 115 -3 45 -6 100 -8 123 -2 31 0 40 10 36
9 -3 14 2 14 16 0 11 11 28 25 37 14 9 25 24 25 33 1 14 2 14 15 -2 13 -18 14
-17 27 7 7 14 16 25 21 25 4 1 15 1 26 1 10 0 21 9 24 20 3 14 10 18 22 14 10
-4 21 1 30 12 10 14 14 15 15 5 0 -10 8 -7 26 10 22 21 27 22 37 9 7 -9 27
-16 46 -15 26 0 35 -5 37 -18 4 -29 10 -30 34 -5 l23 23 -6 -23 c-4 -17 -2
-21 6 -14 7 5 20 9 29 9 14 0 15 -4 6 -20 -10 -19 2 -36 25 -37 5 0 5 -4 2
-10 -9 -14 8 -12 24 3 11 10 13 8 8 -11 -3 -13 -1 -20 5 -16 5 3 12 -3 15 -15
5 -19 7 -19 34 -6 42 22 48 18 14 -10 -23 -19 -26 -25 -12 -25 9 0 17 -7 17
-16 0 -14 7 -15 42 -10 38 6 40 5 27 -11 -9 -11 -10 -14 -1 -9 8 5 12 0 12
-15 0 -12 9 -30 21 -40 12 -10 18 -23 14 -30 -5 -8 -1 -9 15 -4 18 6 22 4 17
-7 -3 -8 3 -21 14 -29 11 -8 17 -20 14 -30 -3 -9 2 -24 11 -34 12 -11 14 -19
6 -27 -16 -16 9 -40 27 -25 11 10 13 8 7 -10 -11 -34 3 -73 26 -73 15 0 19 -5
15 -20 -3 -13 0 -20 10 -20 8 0 13 -6 10 -12 -20 -49 -20 -48 12 -48 24 0 31
-4 31 -20 0 -12 7 -20 16 -20 14 0 15 -2 3 -17 -13 -15 -12 -16 9 -11 26 7 27
4 7 -51 -9 -27 -10 -41 -3 -41 7 0 7 -5 -1 -14 -10 -12 -8 -15 11 -18 21 -3
20 -5 -12 -23 -32 -18 -33 -20 -12 -23 12 -2 28 -12 34 -22 7 -10 18 -16 26
-12 10 3 13 1 8 -6 -4 -7 -17 -13 -29 -13 -17 -1 -16 -3 6 -8 l29 -6 -22 -25
c-18 -21 -19 -25 -6 -28 19 -4 21 -18 4 -26 -7 -3 0 -2 16 1 l30 6 -35 -31
c-27 -25 -30 -31 -15 -32 13 0 16 -5 11 -17 -4 -10 -8 -24 -8 -30 0 -7 -7 -15
-16 -18 -20 -7 -56 -55 -41 -55 6 0 21 5 33 11 22 12 22 12 3 -9 -10 -11 -30
-22 -45 -24 -18 -2 -27 -10 -29 -25 -4 -26 18 -31 40 -9 8 8 26 11 46 8 26 -3
30 -7 21 -18 -8 -10 -8 -14 0 -14 6 0 11 -8 11 -17 0 -15 2 -16 10 -3 5 8 12
11 16 7 4 -3 1 -13 -6 -22 -15 -18 -11 -19 24 -5 41 15 31 5 -31 -34 -32 -20
-52 -36 -45 -36 7 0 24 7 38 16 43 29 37 7 -10 -37 -26 -23 -44 -44 -41 -47 3
-3 13 2 22 10 10 9 32 18 48 21 l30 5 -29 -23 -28 -23 26 5 c14 3 26 10 26 15
0 5 5 6 10 3 6 -3 10 -11 10 -16 0 -6 -4 -8 -9 -5 -5 3 -14 -1 -21 -9 -10 -12
-7 -13 21 -5 17 5 40 17 49 25 20 18 18 24 21 -71 1 -35 4 -41 20 -37 23 6 24
-5 3 -28 -20 -22 -10 -39 23 -39 l26 0 -24 -26 c-23 -26 -23 -26 -2 -15 22 11
22 11 11 -16 -7 -15 -18 -36 -26 -45 -17 -21 -3 -24 29 -8 10 6 19 7 19 3 0
-7 -21 -22 -83 -59 -45 -27 -59 -64 -25 -64 17 0 18 -3 8 -15 -10 -12 -9 -15
6 -16 15 0 14 -2 -5 -10 -33 -13 -76 -57 -77 -79 -1 -12 8 -21 22 -24 17 -5
24 -13 24 -31 0 -30 7 -31 40 -5 33 26 48 26 25 0 -10 -11 -15 -23 -11 -27 4
-4 10 -3 14 2 4 6 15 16 25 24 16 12 17 12 11 -5 -6 -15 0 -13 23 9 16 15 40
27 54 27 22 -1 23 -2 6 -14 -15 -12 -15 -15 -2 -26 12 -10 19 -8 41 9 15 12
35 21 45 21 23 0 52 40 40 54 -9 11 -11 17 -11 36 0 6 -9 10 -20 10 -11 0 -20
5 -20 10 0 6 7 10 15 10 8 0 15 5 15 10 0 6 -6 10 -12 10 -9 0 -8 4 2 10 12 8
13 11 1 19 -11 7 -11 9 0 14 9 4 8 6 -5 6 -14 1 -16 4 -7 14 6 8 8 17 4 20 -3
4 -1 7 5 7 7 0 12 5 12 10 0 6 -9 10 -19 10 -11 0 -23 5 -27 12 -4 7 -3 8 4 4
7 -4 12 -2 12 3 0 6 -10 11 -22 11 -16 0 -19 3 -11 11 6 6 9 18 6 25 -3 8 0
14 6 14 8 0 9 5 1 19 -7 14 -7 28 0 47 8 20 8 29 0 34 -7 4 -9 21 -6 42 4 26
1 37 -13 48 -14 10 -18 21 -14 45 3 19 0 35 -6 39 -6 4 -8 18 -5 31 3 12 1 26
-5 29 -6 4 -11 18 -11 31 0 13 -4 26 -9 29 -5 3 -7 15 -4 26 3 11 2 28 -2 37
-5 10 -7 23 -6 30 1 6 -3 14 -8 18 -6 3 -8 12 -4 20 3 8 0 15 -7 15 -9 0 -9 4
1 17 8 9 9 14 4 11 -6 -4 -17 -3 -25 3 -10 6 -11 9 -2 9 6 0 12 5 12 10 0 6
-6 10 -13 10 -9 0 -13 12 -12 36 0 22 -5 38 -12 41 -10 4 -11 9 -3 18 8 9 7
14 -2 17 -10 4 -10 9 2 23 14 16 13 17 -8 11 -17 -6 -21 -4 -16 8 3 8 0 24 -6
36 -10 18 -9 24 1 32 10 6 6 7 -11 2 -22 -6 -23 -5 -12 9 8 9 11 21 7 27 -3 5
-1 10 5 10 7 0 10 6 7 14 -3 8 -1 17 6 20 7 3 2 8 -10 11 -18 6 -21 12 -16 36
4 19 1 29 -7 29 -7 0 -10 7 -7 15 4 8 2 17 -3 20 -6 4 -6 14 1 26 9 17 7 21
-10 26 -18 5 -19 8 -9 21 12 13 10 14 -10 3 -27 -14 -42 -7 -24 11 7 7 12 19
12 28 0 21 -34 53 -44 43 -4 -5 -5 4 -1 19 6 22 3 27 -17 30 -12 2 -24 10 -24
18 -4 34 -17 60 -31 60 -9 0 -13 6 -9 15 3 9 0 15 -10 15 -9 0 -14 6 -12 12 5
14 -20 43 -36 43 -6 0 -11 7 -11 16 0 9 -7 23 -15 32 -31 34 -40 46 -40 57 0
5 -11 10 -25 10 -25 0 -33 14 -15 25 21 13 9 25 -17 19 -23 -5 -26 -4 -15 7
18 20 15 32 -9 26 -15 -4 -19 -2 -15 8 7 18 -17 37 -38 29 -9 -3 -16 -1 -16 5
0 6 -9 11 -21 11 -15 0 -19 5 -15 15 3 9 0 17 -7 19 -6 2 -21 7 -32 12 -11 4
-26 6 -32 5 -7 -1 -13 5 -13 14 0 8 -5 15 -11 15 -5 0 -7 5 -4 10 3 6 -1 10
-9 10 -8 0 -18 9 -21 21 -5 16 -12 19 -30 15 -17 -4 -28 0 -38 14 -9 13 -20
18 -31 14 -9 -3 -16 -1 -16 6 0 14 -25 40 -39 40 -6 0 -8 7 -5 15 5 11 -1 15
-20 15 -14 0 -26 5 -26 11 0 6 -7 8 -16 5 -10 -4 -18 0 -21 13 -3 13 -10 18
-20 14 -12 -5 -14 -1 -9 15 7 20 4 21 -22 16 -21 -4 -31 -2 -35 9 -4 10 -13
13 -26 10 -12 -3 -21 -1 -21 6 0 6 -7 11 -15 11 -8 0 -15 5 -15 10 0 6 -7 10
-16 10 -9 0 -32 9 -50 21 -19 11 -34 17 -34 14 0 -4 -6 -3 -12 1 -7 5 -22 9
-33 9 -11 0 -22 2 -25 5 -18 19 -48 28 -59 17 -9 -9 -14 -8 -22 3 -8 13 -11
13 -20 -3 -8 -14 -14 -16 -25 -6 -7 6 -21 9 -29 5 -8 -3 -15 -1 -15 5 0 17
-51 31 -66 18 -11 -9 -15 -8 -19 3 -3 8 -11 15 -18 15 -41 3 -121 14 -127 18
-5 3 -11 -2 -14 -11 -4 -11 -10 -13 -19 -6 -6 5 -38 9 -70 8 -31 0 -57 2 -57
7 0 4 -7 7 -15 7 -8 0 -15 -6 -15 -14z m-626 -242 c4 -10 1 -14 -6 -12 -15 5
-23 28 -10 28 5 0 13 -7 16 -16z m-194 -119 c0 -9 -6 -12 -15 -9 -8 4 -12 10
-9 15 8 14 24 10 24 -6z m324 -241 c4 -10 1 -14 -6 -12 -15 5 -23 28 -10 28 5
0 13 -7 16 -16z m-669 -124 c-3 -5 -10 -10 -16 -10 -5 0 -9 5 -9 10 0 6 7 10
16 10 8 0 12 -4 9 -10z m1476 -123 c-8 -8 -11 -7 -11 4 0 20 13 34 18 19 3 -7
-1 -17 -7 -23z m59 3 c0 -5 -4 -10 -10 -10 -5 0 -10 5 -10 10 0 6 5 10 10 10
6 0 10 -4 10 -10z m-525 -20 c3 -5 2 -10 -4 -10 -5 0 -13 5 -16 10 -3 6 -2 10
4 10 5 0 13 -4 16 -10z m73 -64 c2 -16 -1 -33 -6 -38 -7 -7 -10 -2 -9 13 0 13
-3 32 -8 43 -6 14 -5 18 6 14 8 -2 15 -17 17 -32z m370 -55 c13 -15 31 -39 39
-55 14 -26 14 -28 -2 -23 -9 4 -14 3 -11 -1 2 -4 1 -14 -4 -22 -8 -12 -13 -11
-30 8 -11 12 -29 22 -39 22 -18 0 -18 -3 -6 -42 7 -24 16 -51 20 -60 4 -11 3
-18 -4 -18 -6 0 -11 5 -11 10 0 6 -6 10 -14 10 -9 0 -14 9 -13 24 1 14 -2 25
-8 25 -15 1 -14 -70 1 -99 7 -14 13 -22 14 -18 0 4 10 4 23 -1 30 -11 57 19
52 60 -2 16 0 29 4 29 18 0 60 -53 58 -73 -3 -29 -28 -67 -44 -67 -7 0 -13 -5
-13 -11 0 -21 -26 -34 -69 -34 -42 0 -47 3 -82 49 -41 55 -41 74 2 110 31 26
39 49 14 39 -9 -3 -21 1 -28 10 -7 8 -21 17 -31 19 -41 7 -21 87 24 96 8 2 23
12 32 24 13 15 25 18 43 14 14 -4 25 -2 25 3 0 16 32 0 58 -28z m-1648 -152
c0 -6 -4 -7 -10 -4 -5 3 -10 11 -10 16 0 6 5 7 10 4 6 -3 10 -11 10 -16z
m1140 -39 c0 -5 -4 -10 -10 -10 -5 0 -10 5 -10 10 0 6 5 10 10 10 6 0 10 -4
10 -10z m500 -170 c0 -5 -7 -10 -15 -10 -8 0 -15 5 -15 10 0 6 7 10 15 10 8 0
15 -4 15 -10z m-40 -80 c-27 -21 -60 -26 -60 -10 0 6 9 10 19 10 11 0 23 5 26
10 3 6 14 10 23 10 13 0 12 -5 -8 -20z m1450 10 c0 -5 -5 -10 -11 -10 -5 0 -7
5 -4 10 3 6 8 10 11 10 2 0 4 -4 4 -10z m-1520 -24 c0 -3 -4 -8 -10 -11 -5 -3
-10 -1 -10 4 0 6 5 11 10 11 6 0 10 -2 10 -4z m230 -16 c8 -5 11 -10 5 -10 -5
0 -17 5 -25 10 -8 5 -10 10 -5 10 6 0 17 -5 25 -10z m1270 -189 c0 -5 -9 -11
-21 -14 -16 -4 -18 -3 -8 9 13 16 29 19 29 5z m-1743 -97 c-3 -3 -12 -4 -19
-1 -8 3 -5 6 6 6 11 1 17 -2 13 -5z m1904 -177 c-10 -9 -11 -8 -5 6 3 10 9 15
12 12 3 -3 0 -11 -7 -18z m9 -27 c0 -5 -4 -10 -10 -10 -5 0 -10 5 -10 10 0 6
5 10 10 10 6 0 10 -4 10 -10z"/>
<path d="M3415 3400 c-3 -5 -1 -10 4 -10 6 0 11 5 11 10 0 6 -2 10 -4 10 -3 0
-8 -4 -11 -10z"/>
<path d="M3831 3674 c0 -11 3 -14 6 -6 3 7 2 16 -1 19 -3 4 -6 -2 -5 -13z"/>
<path d="M4300 3458 c-36 -10 -97 -58 -117 -92 -24 -42 -26 -49 -15 -67 7 -10
12 -26 12 -34 0 -8 4 -15 9 -15 5 0 14 -12 20 -27 18 -44 38 -74 47 -74 5 1 9
-4 9 -9 0 -6 7 -15 15 -20 11 -7 11 -10 2 -10 -7 0 -10 -4 -7 -10 3 -5 17 -10
30 -10 28 0 121 80 105 90 -8 5 -7 9 4 13 9 4 13 13 10 22 -4 8 -1 22 6 30 10
12 10 18 -1 32 -12 14 -12 15 0 9 21 -13 4 66 -26 120 -21 37 -51 67 -65 63
-2 0 -19 -5 -38 -11z m77 -150 c-3 -8 -6 -5 -6 6 -1 11 2 17 5 13 3 -3 4 -12
1 -19z"/>
<path d="M3975 3380 c3 -5 8 -10 11 -10 2 0 4 5 4 10 0 6 -5 10 -11 10 -5 0
-7 -4 -4 -10z"/>
<path d="M1600 3333 c0 -4 12 -18 27 -30 14 -13 21 -23 14 -23 -7 0 1 -12 16
-26 15 -14 23 -23 17 -20 -16 8 -74 -4 -74 -15 0 -5 8 -6 18 -3 16 5 16 5 -1
-6 -9 -6 -23 -8 -30 -4 -6 4 -2 -3 11 -15 27 -27 28 -34 2 -26 -39 12 -21 -21
23 -43 24 -12 53 -33 66 -46 l24 -25 -37 6 c-32 5 -36 3 -30 -12 7 -16 5 -16
-22 1 -15 11 -25 13 -21 7 5 -7 4 -13 -2 -13 -5 0 -11 4 -13 9 -1 4 -14 12
-27 16 -18 5 -22 4 -16 -6 6 -9 3 -11 -9 -6 -10 4 -15 3 -11 -3 3 -6 15 -10
25 -10 28 0 70 -21 70 -36 0 -6 7 -15 16 -18 8 -3 12 -11 9 -17 -4 -5 1 -20
12 -31 18 -21 18 -21 -7 -14 -14 4 -38 10 -55 12 l-30 5 35 -20 c19 -11 33
-21 30 -22 -26 -8 -60 -6 -60 4 0 7 -6 4 -14 -5 -7 -10 -15 -15 -18 -13 -3 3
-11 -1 -18 -10 -10 -12 -10 -15 5 -15 11 0 15 -5 12 -15 -8 -19 38 -55 69 -55
13 0 24 -4 24 -10 0 -13 -57 -13 -65 0 -4 6 -11 7 -18 3 -7 -4 -4 -9 9 -14 16
-6 15 -8 -8 -8 -27 -1 -41 -21 -16 -21 7 0 2 -7 -10 -16 -12 -8 -27 -12 -34
-8 -6 4 -8 3 -4 -4 3 -6 20 -14 38 -17 25 -6 28 -9 15 -16 -20 -12 -16 -58 7
-74 23 -17 20 -25 -11 -25 -21 0 -24 -3 -14 -9 12 -8 11 -12 -3 -27 -17 -16
-16 -18 14 -31 18 -7 42 -13 54 -13 17 0 18 -2 6 -10 -8 -5 -28 -10 -45 -10
-23 0 -27 -3 -15 -10 11 -7 11 -10 2 -10 -7 0 -10 -5 -7 -10 3 -6 18 -7 32 -4
18 5 24 3 19 -5 -4 -6 -18 -11 -31 -11 -27 0 -42 -16 -23 -23 10 -4 9 -8 -2
-16 -13 -10 -12 -14 9 -31 13 -11 29 -20 36 -20 7 0 18 -6 24 -14 10 -12 9
-13 -7 -9 -11 2 -23 0 -26 -6 -5 -7 5 -11 26 -11 28 -1 30 -2 15 -11 -10 -6
-34 -8 -53 -6 -24 3 -34 1 -31 -7 2 -6 20 -12 40 -14 46 -4 50 -24 5 -22 -47
3 -58 1 -58 -9 0 -9 83 -6 150 4 l35 6 -27 -15 c-16 -8 -55 -16 -89 -18 -68
-3 -87 -15 -39 -24 19 -4 29 -11 26 -19 -3 -8 6 -16 20 -19 14 -4 22 -11 19
-16 -3 -5 2 -13 12 -19 16 -8 15 -10 -8 -16 -34 -8 -34 -33 0 -28 23 3 23 2 6
-6 -20 -9 -20 -9 -1 -17 19 -7 19 -8 0 -15 -10 -4 6 -5 36 -2 67 7 59 -13 -11
-26 l-44 -8 40 -7 c66 -12 72 -15 55 -27 -11 -8 -7 -9 14 -4 16 3 42 1 58 -6
30 -12 38 -29 13 -29 -29 0 -15 -17 22 -26 20 -5 38 -14 40 -21 7 -20 -32 -24
-77 -8 -24 8 -45 13 -48 10 -3 -3 1 -5 9 -5 12 0 11 -2 -1 -11 -12 -8 -11 -9
5 -5 11 3 33 -3 49 -13 l29 -19 -24 -4 c-23 -3 -22 -4 10 -21 19 -9 41 -17 50
-16 10 0 6 5 -9 11 -45 20 5 22 55 2 59 -22 57 -35 -2 -28 l-48 5 43 -19 c24
-10 43 -22 43 -28 -1 -5 18 -15 40 -23 24 -8 36 -16 30 -20 -13 -8 10 -32 44
-46 18 -7 17 -9 -10 -15 l-30 -8 32 -1 c44 -1 50 -18 11 -30 l-33 -9 32 -1
c38 -1 56 -21 19 -21 -16 0 -26 -6 -26 -14 0 -12 7 -12 38 -4 20 6 41 16 45
24 5 9 27 14 67 14 32 0 62 5 65 10 3 6 1 10 -4 10 -6 0 -11 5 -11 10 0 14 28
12 32 -2 3 -9 10 -8 23 5 10 11 24 15 34 11 41 -17 52 -13 16 5 l-40 21 47 -5
c27 -2 59 -7 73 -11 18 -5 25 -2 25 9 0 17 53 16 150 -3 30 -6 87 -13 125 -15
39 -2 95 -7 125 -10 36 -3 50 -1 40 5 -23 14 -8 19 38 10 23 -4 42 -4 42 -1 0
13 -77 28 -99 19 -13 -4 -30 -4 -39 2 -14 8 -12 9 10 10 15 0 30 5 33 10 4 6
16 8 28 5 17 -5 19 -4 7 4 -16 11 -13 12 35 25 11 3 1 4 -23 2 -39 -4 -44 -2
-53 21 -8 22 -14 25 -40 19 -17 -3 -46 -13 -65 -22 -28 -13 -40 -14 -59 -6
-14 6 -32 9 -41 5 -9 -3 -20 0 -25 8 -8 12 -10 12 -19 -1 -7 -11 -26 -14 -77
-13 -37 1 -94 -5 -126 -13 -49 -12 -64 -13 -88 -2 -16 7 -29 19 -29 25 0 8
-14 13 -37 13 -25 0 -33 3 -25 9 17 10 -44 24 -62 14 -6 -4 -4 2 4 12 14 17
13 18 -13 11 -19 -4 -26 -3 -22 4 3 6 -3 10 -15 10 -12 0 -18 5 -15 10 3 6 -4
10 -16 10 -19 0 -20 2 -8 17 13 15 11 16 -18 10 -26 -5 -31 -3 -26 8 3 8 9 15
14 15 5 0 9 7 9 15 0 8 -4 15 -10 15 -5 0 -10 7 -10 15 0 13 -7 15 -35 9 -29
-5 -34 -4 -30 9 9 21 -22 90 -36 82 -7 -5 -10 6 -8 35 3 30 -1 45 -13 54 -13
10 -14 16 -6 24 9 9 5 14 -13 21 -13 5 -18 10 -10 10 11 1 10 5 -5 16 -19 14
-18 14 4 15 12 0 22 5 22 10 0 6 -5 10 -11 10 -5 0 -7 5 -4 10 3 6 -2 10 -12
10 -15 0 -16 2 -3 10 13 9 13 10 0 11 -11 0 -9 3 4 8 17 6 16 9 -8 25 -22 14
-25 20 -16 31 14 17 5 35 -16 35 -8 0 -12 5 -9 10 3 6 1 10 -4 10 -6 0 -11 5
-11 10 0 6 8 10 18 10 13 0 11 3 -7 13 -13 6 -23 16 -22 21 2 5 -3 12 -10 17
-9 5 -5 11 14 20 36 16 34 23 -10 43 l-38 16 35 -4 c19 -3 29 -2 23 1 -7 2
-13 11 -13 18 0 7 -10 16 -22 20 l-23 7 25 8 25 8 -22 7 c-13 4 -23 11 -23 16
0 5 7 6 15 3 11 -4 13 -2 9 9 -7 19 24 30 63 22 19 -4 12 2 -22 19 -27 14 -56
25 -62 26 -7 0 -13 4 -13 10 0 6 9 6 26 0 37 -14 39 -12 13 10 l-24 20 28 -10
c39 -14 47 -12 18 4 -34 19 -13 26 33 11 24 -9 46 -10 60 -5 18 7 18 9 3 9
-10 1 -16 5 -13 10 3 5 -2 12 -12 15 -9 4 -33 16 -52 27 -28 15 -30 18 -10 14
l25 -6 -23 20 c-12 11 -28 21 -35 24 -6 2 -9 7 -5 11 3 4 16 3 27 -4 27 -14
27 -3 -1 19 -26 21 -32 51 -11 51 13 0 13 3 3 15 -7 8 -19 15 -27 15 -12 0
-13 3 -4 14 9 10 8 15 -4 20 -21 8 -19 26 3 26 13 1 11 4 -8 15 -22 13 -23 14
-5 15 18 1 18 2 3 8 -18 7 -62 82 -49 82 4 0 8 6 8 14 0 8 -6 12 -14 9 -7 -3
-13 -1 -13 5 0 5 7 12 15 16 20 7 19 46 -1 46 -10 0 -14 6 -11 14 3 7 -1 24
-10 36 -11 16 -12 25 -4 33 8 8 11 7 11 -6 0 -19 15 -23 26 -6 3 6 1 15 -6 19
-9 6 -9 9 -1 15 9 5 9 10 0 21 -15 18 -33 18 -26 0 5 -12 2 -12 -21 0 -29 15
-62 19 -62 7z m55 -193 c3 -5 1 -10 -4 -10 -6 0 -11 5 -11 10 0 6 2 10 4 10 3
0 8 -4 11 -10z m-45 -289 c0 -6 -5 -13 -12 -17 -6 -4 -8 -3 -4 4 3 5 0 13 -6
15 -8 3 -6 6 5 6 9 1 17 -3 17 -8z m-20 -101 c0 -5 -10 -10 -22 -10 -19 0 -20
2 -8 10 19 13 30 13 30 0z m55 -30 c7 -12 -2 -12 -30 0 -19 8 -19 9 2 9 12 1
25 -3 28 -9z m-42 -97 c-7 -2 -19 -2 -25 0 -7 3 -2 5 12 5 14 0 19 -2 13 -5z
m47 -43 c0 -12 -24 -12 -60 0 -21 7 -19 8 18 9 23 1 42 -3 42 -9z m8 -137
c-10 -2 -26 -2 -35 0 -10 3 -2 5 17 5 19 0 27 -2 18 -5z m-1 -159 c-3 -3 -12
-4 -19 -1 -8 3 -5 6 6 6 11 1 17 -2 13 -5z m38 -194 c3 -5 1 -10 -4 -10 -6 0
-11 5 -11 10 0 6 2 10 4 10 3 0 8 -4 11 -10z m-20 -30 c-3 -5 -14 -10 -23 -10
-15 0 -15 2 -2 10 20 13 33 13 25 0z"/>
<path d="M2253 3258 c-11 -13 -23 -32 -27 -43 -15 -40 -23 -106 -15 -111 5 -3
9 -16 9 -28 0 -13 7 -29 15 -36 8 -7 15 -17 15 -23 0 -5 17 -28 37 -51 39 -43
48 -45 114 -25 41 13 50 27 74 113 9 32 23 69 32 82 19 29 11 40 -56 87 -70
49 -90 57 -135 57 -31 0 -48 -6 -63 -22z m24 -105 c-1 -27 2 -59 6 -73 8 -24
7 -24 -7 -6 -16 20 -21 81 -10 110 10 26 13 19 11 -31z m38 -130 l18 -28 -21
19 c-12 11 -22 23 -22 28 0 14 7 9 25 -19z"/>
<path d="M4313 3073 c9 -2 23 -2 30 0 6 3 -1 5 -18 5 -16 0 -22 -2 -12 -5z"/>
<path d="M1540 2990 c0 -5 12 -10 28 -10 21 0 24 2 12 10 -20 13 -40 13 -40 0z"/>
<path d="M1790 2876 c0 -2 7 -7 16 -10 8 -3 12 -2 9 4 -6 10 -25 14 -25 6z"/>
<path d="M4555 2198 c-6 -13 -23 -29 -40 -37 -43 -20 -81 -51 -63 -51 8 0 23
8 34 19 18 16 56 34 76 36 15 1 30 25 25 39 -9 22 -21 20 -32 -6z"/>
<path d="M5194 2212 c-12 -2 -30 -13 -40 -24 -19 -21 -19 -21 1 -13 11 4 30
10 43 12 42 10 38 33 -4 25z"/>
<path d="M4709 2183 c-6 -34 -5 -53 2 -53 5 0 9 6 9 14 0 8 3 21 6 30 3 9 1
16 -5 16 -6 0 -12 -3 -12 -7z"/>
<path d="M5218 2183 c-10 -2 -18 -9 -18 -14 0 -6 -4 -8 -9 -4 -5 3 -12 1 -16
-5 -3 -5 1 -10 9 -10 21 0 66 21 66 32 0 8 -4 9 -32 1z"/>
<path d="M5197 2120 c-16 -10 -24 -21 -19 -24 15 -9 36 1 50 24 15 24 6 24
-31 0z"/>
<path d="M5140 2090 c-9 -6 -10 -10 -3 -10 6 0 15 5 18 10 8 12 4 12 -15 0z"/>
<path d="M1638 1893 c7 -3 16 -2 19 1 4 3 -2 6 -13 5 -11 0 -14 -3 -6 -6z"/>
<path d="M3430 1854 c0 -9 5 -14 12 -12 18 6 21 28 4 28 -9 0 -16 -7 -16 -16z"/>
<path d="M1628 1833 c6 -2 10 -9 7 -14 -3 -4 4 -10 17 -13 65 -13 88 -15 88
-6 0 6 -7 10 -15 10 -9 0 -12 6 -9 15 4 8 1 15 -5 15 -6 0 -11 -4 -11 -10 0
-5 -11 -10 -24 -10 -14 0 -28 5 -31 10 -3 6 -12 10 -18 9 -9 0 -8 -2 1 -6z"/>
<path d="M3270 1800 c0 -5 5 -10 10 -10 6 0 10 5 10 10 0 6 -4 10 -10 10 -5 0
-10 -4 -10 -10z"/>
<path d="M3010 1759 c0 -5 5 -7 10 -4 6 3 10 8 10 11 0 2 -4 4 -10 4 -5 0 -10
-5 -10 -11z"/>
<path d="M2876 1724 c-12 -8 -8 -11 19 -10 19 1 40 7 47 14 9 9 4 11 -20 9
-17 -1 -38 -7 -46 -13z"/>
<path d="M2963 1721 c-10 -16 -9 -20 6 -24 22 -5 55 18 46 32 -10 17 -39 13
-52 -8z"/>
<path d="M2490 1631 c0 -13 26 -21 63 -20 30 0 29 1 -13 15 -54 16 -50 16 -50
5z"/>
<path d="M2700 1606 c0 -9 30 -14 35 -6 4 6 -3 10 -14 10 -12 0 -21 -2 -21 -4z"/>
<path d="M2730 1570 c-13 -8 -12 -10 3 -10 9 0 17 5 17 10 0 12 -1 12 -20 0z"/>
<path d="M2028 1463 c7 -3 16 -2 19 1 4 3 -2 6 -13 5 -11 0 -14 -3 -6 -6z"/>
<path d="M4410 710 c-12 -16 -30 -30 -40 -30 -20 0 -72 -45 -62 -54 22 -23 85
19 121 79 25 43 11 47 -19 5z"/>
<path d="M4140 575 c0 -14 4 -25 9 -25 4 0 6 11 3 25 -2 14 -6 25 -8 25 -2 0
-4 -11 -4 -25z"/>
<path d="M3296 263 c-11 -11 -6 -23 9 -23 8 0 15 4 15 9 0 13 -16 22 -24 14z"/>
<path d="M3755 250 c-3 -5 3 -10 14 -10 12 0 21 5 21 10 0 6 -6 10 -14 10 -8
0 -18 -4 -21 -10z"/>
<path d="M4093 248 c-26 -13 -31 -48 -7 -48 11 0 15 6 11 20 -3 13 0 20 8 20
8 0 17 5 20 10 8 13 -3 12 -32 -2z"/>
<path d="M3946 191 c-4 -5 -2 -12 3 -15 5 -4 12 -2 15 3 4 5 2 12 -3 15 -5 4
-12 2 -15 -3z"/>
<path d="M3872 168 c-19 -19 -14 -28 13 -28 27 0 32 12 12 29 -10 8 -17 7 -25
-1z"/>
<path d="M6128 163 c7 -3 16 -2 19 1 4 3 -2 6 -13 5 -11 0 -14 -3 -6 -6z"/>
<path d="M6235 149 c-9 -14 -2 -20 14 -10 8 6 9 11 3 15 -6 3 -14 1 -17 -5z"/>
<path d="M6220 80 c20 -13 33 -13 25 0 -3 6 -14 10 -23 10 -15 0 -15 -2 -2
-10z"/>
<path d="M4415 30 c-3 -5 -1 -10 4 -10 6 0 11 5 11 10 0 6 -2 10 -4 10 -3 0
-8 -4 -11 -10z"/>
<path d="M6225 10 c-3 -5 1 -10 9 -10 8 0 18 5 21 10 3 6 -1 10 -9 10 -8 0
-18 -4 -21 -10z"/>
</g>
</svg>
